<svg xmlns="http://www.w3.org/2000/svg" viewBox="0 0 100 100" width="100" height="100">
  <defs>
    <linearGradient id="crownGradient" x1="0%" y1="0%" x2="100%" y2="100%">
      <stop offset="0%" style="stop-color:#3B82F6;stop-opacity:1" />
      <stop offset="100%" style="stop-color:#1E40AF;stop-opacity:1" />
    </linearGradient>
    <linearGradient id="houseGradient" x1="0%" y1="0%" x2="100%" y2="100%">
      <stop offset="0%" style="stop-color:#F8FAFC;stop-opacity:1" />
      <stop offset="100%" style="stop-color:#E2E8F0;stop-opacity:1" />
    </linearGradient>
  </defs>
  
  <!-- Background Circle -->
  <circle cx="50" cy="50" r="45" fill="#1E293B" stroke="#3B82F6" stroke-width="2"/>
  
  <!-- Crown -->
  <path d="M25 25 L35 35 L50 20 L65 35 L75 25 L70 40 L30 40 Z" fill="url(#crownGradient)"/>
  
  <!-- Crown Jewels -->
  <circle cx="35" cy="30" r="2" fill="#F8FAFC"/>
  <circle cx="50" cy="25" r="2" fill="#F8FAFC"/>
  <circle cx="65" cy="30" r="2" fill="#F8FAFC"/>
  
  <!-- Central House -->
  <path d="M35 45 L50 35 L65 45 L65 70 L35 70 Z" fill="url(#houseGradient)"/>
  <rect x="45" y="55" width="10" height="15" fill="#1E293B"/>
  <rect x="40" y="50" width="4" height="4" fill="#1E293B"/>
  <rect x="56" y="50" width="4" height="4" fill="#1E293B"/>
  
  <!-- Side Houses -->
  <path d="M20 50 L30 45 L40 50 L40 70 L20 70 Z" fill="url(#houseGradient)"/>
  <rect x="25" y="60" width="6" height="10" fill="#1E293B"/>
  <rect x="23" y="55" width="3" height="3" fill="#1E293B"/>
  <rect x="30" y="55" width="3" height="3" fill="#1E293B"/>
  
  <path d="M60 50 L70 45 L80 50 L80 70 L60 70 Z" fill="url(#houseGradient)"/>
  <rect x="65" y="60" width="6" height="10" fill="#1E293B"/>
  <rect x="63" y="55" width="3" height="3" fill="#1E293B"/>
  <rect x="70" y="55" width="3" height="3" fill="#1E293B"/>
  
  <!-- Decorative Stars -->
  <path d="M15 20 L16 22 L18 22 L16.5 23.5 L17 25 L15 24 L13 25 L13.5 23.5 L12 22 L14 22 Z" fill="#F8FAFC"/>
  <path d="M85 20 L86 22 L88 22 L86.5 23.5 L87 25 L85 24 L83 25 L83.5 23.5 L82 22 L84 22 Z" fill="#F8FAFC"/>
  <path d="M20 75 L21 77 L23 77 L21.5 78.5 L22 80 L20 79 L18 80 L18.5 78.5 L17 77 L19 77 Z" fill="#F8FAFC"/>
  <path d="M80 75 L81 77 L83 77 L81.5 78.5 L82 80 L80 79 L78 80 L78.5 78.5 L77 77 L79 77 Z" fill="#F8FAFC"/>
</svg>